<svg width="60" height="60" viewBox="0 0 60 60" fill="none" xmlns="http://www.w3.org/2000/svg">
<path d="M36.1582 39.3281H8.68359C5.9707 39.3281 3.76758 37.125 3.76758 34.4121V16.4238C3.76758 13.7109 5.9707 11.5078 8.68359 11.5078H36.1582C38.8711 11.5078 41.0742 13.7109 41.0742 16.4238V34.4062C41.0742 37.125 38.877 39.3281 36.1582 39.3281Z" fill="#0463F1"/>
<path d="M3.76758 17.7129H41.0801V23.3438H3.76758V17.7129Z" fill="#183351"/>
<path d="M17.8125 31.1602H7.51758C6.80859 31.1602 6.22852 30.5801 6.22852 29.8711C6.22852 29.1621 6.80859 28.582 7.51758 28.582H17.8125C18.5215 28.582 19.1016 29.1621 19.1016 29.8711C19.1016 30.5801 18.5215 31.1602 17.8125 31.1602ZM25.6289 35.2266H7.51758C6.80859 35.2266 6.22852 34.6465 6.22852 33.9375C6.22852 33.2285 6.80859 32.6484 7.51758 32.6484H25.6289C26.3379 32.6484 26.918 33.2285 26.918 33.9375C26.918 34.6465 26.3379 35.2266 25.6289 35.2266Z" fill="#FBFAEE"/>
<path d="M51.3164 48.4922H23.8418C21.1289 48.4922 18.9258 46.2891 18.9258 43.5762V25.5879C18.9258 22.875 21.1289 20.6719 23.8418 20.6719H51.3164C54.0293 20.6719 56.2324 22.875 56.2324 25.5879V43.5703C56.2324 46.2891 54.0352 48.4922 51.3164 48.4922Z" fill="#FFB800"/>
<path d="M46.1895 35.5781H22.6758C21.9668 35.5781 21.3867 34.998 21.3867 34.2891C21.3867 33.5801 21.9668 33 22.6758 33H46.1895C46.8984 33 47.4785 33.5801 47.4785 34.2891C47.4785 34.998 46.8984 35.5781 46.1895 35.5781Z" fill="#FF8A00"/>
<path d="M32.9707 40.3242H22.6758C21.9668 40.3242 21.3867 39.7441 21.3867 39.0352C21.3867 38.3262 21.9668 37.7461 22.6758 37.7461H32.9766C33.6855 37.7461 34.2656 38.3262 34.2656 39.0352C34.2598 39.7441 33.6797 40.3242 32.9707 40.3242ZM40.7871 44.3906H22.6758C21.9668 44.3906 21.3867 43.8105 21.3867 43.1016C21.3867 42.3926 21.9668 41.8125 22.6758 41.8125H40.7871C41.4961 41.8125 42.0762 42.3926 42.0762 43.1016C42.0762 43.8105 41.4961 44.3906 40.7871 44.3906Z" fill="#FBFAEE"/>
<path d="M29.9062 30.4863H23.543C22.3535 30.4863 21.3867 29.5195 21.3867 28.3301V25.3535C21.3867 24.1641 22.3535 23.1973 23.543 23.1973H29.9062C31.0957 23.1973 32.0625 24.1641 32.0625 25.3535V28.3301C32.0625 29.5195 31.0957 30.4863 29.9062 30.4863Z" fill="#F3C262"/>
<path d="M32.0625 25.6699H30.0527V23.1973H28.0664V30.4863H30.0527V27.6914H32.0625V25.6699ZM23.5898 23.1973V25.6699H21.3867V27.6914H23.5898V30.4863H25.5762V23.1973H23.5898Z" fill="#FF8A00"/>
<path d="M56.2324 33.8555V28.3594C51.5098 28.3418 47.5488 25.0547 46.5 20.6484H40.9043C42.0293 28.1016 48.4746 33.8379 56.2324 33.8555Z" fill="#F7F9DD"/>
</svg>
