<svg width="209" height="205" viewBox="0 0 209 205" fill="none" xmlns="http://www.w3.org/2000/svg">
    <path d="M48.0642 153.32C48.0642 153.32 34.4737 135.789 32.851 105.217C31.2282 74.6461 40.4141 67.4017 38.6175 63.3738C36.8209 59.346 19.0577 57.1726 15.6673 57.0567C12.2769 56.9408 11.6394 60.4761 11.0309 65.5761C10.4224 70.7051 6.53938 91.1343 18.3622 118.837C30.185 146.539 47.6875 157.841 47.6875 157.841C47.6875 157.841 50.6721 157.29 48.0642 153.32Z" fill="url(#paint0_linear_877_859)"/>
    <path d="M21.4635 121.937C9.64063 94.2349 13.5236 73.8057 14.1321 68.6767C14.7407 63.5477 15.3782 60.0414 18.7686 60.1573C21.4635 60.2443 33.1994 61.6352 38.821 64.2142C38.792 63.8954 38.7341 63.6346 38.5892 63.3449C36.7926 59.317 19.0293 57.1437 15.639 57.0278C12.2486 56.9118 11.6111 60.4471 11.0026 65.5471C10.394 70.6762 6.51106 91.1053 18.3339 118.808C25.5783 135.76 34.909 146.568 41.1102 152.393C35.1698 146.163 27.5487 136.252 21.4635 121.937Z" fill="#F0F0F0"/>
    <path d="M161.134 153.32C161.134 153.32 174.725 135.789 176.348 105.217C177.97 74.6461 168.784 67.4017 170.581 63.3738C172.378 59.346 190.141 57.1726 193.531 57.0567C196.922 56.9408 197.559 60.4761 198.168 65.5761C198.776 70.7051 202.659 91.1343 190.836 118.837C179.013 146.539 161.511 157.841 161.511 157.841C161.511 157.841 158.526 157.29 161.134 153.32Z" fill="url(#paint1_linear_877_859)"/>
    <path d="M187.736 121.937C199.558 94.2349 195.675 73.7768 195.067 68.6767C194.458 63.5477 193.85 60.0414 190.431 60.1573C187.736 60.2443 176 61.6352 170.378 64.2142C170.407 63.8954 170.465 63.6346 170.61 63.3449C172.407 59.317 190.17 57.1437 193.56 57.0278C196.95 56.9118 197.588 60.4471 198.196 65.5471C198.805 70.6762 202.688 91.1053 190.865 118.808C183.621 135.76 174.29 146.568 168.089 152.393C174.029 146.163 181.65 136.252 187.736 121.937Z" fill="#F0F0F0"/>
    <path d="M72.5218 166.418C72.5218 166.418 53.7444 159.376 38.0096 136.629C22.2748 113.882 25.897 103.942 22.6225 101.682C19.3191 99.4219 4.62747 106.174 1.96153 107.68C-0.704398 109.216 0.483681 112.201 2.42517 116.432C4.36667 120.662 11.0895 138.223 33.3152 153.958C55.541 169.692 74.3763 170.069 74.3763 170.069C74.3763 170.069 76.4337 168.243 72.5218 166.418Z" fill="url(#paint2_linear_877_859)"/>
    <path d="M6.07568 119.561C4.13419 115.331 2.91713 112.317 5.61204 110.81C7.87229 109.506 18.8258 104.464 24.0997 104.348C23.752 103.044 23.3753 102.175 22.6508 101.682C19.3474 99.4219 4.65579 106.174 1.98985 107.68C-0.676077 109.216 0.512001 112.201 2.45349 116.432C4.22112 120.286 9.9297 135.18 27.6929 149.669C12.7405 136.223 7.69843 123.125 6.07568 119.561Z" fill="#F0F0F0"/>
    <path d="M136.677 166.418C136.677 166.418 155.455 159.376 171.19 136.629C186.924 113.882 183.302 103.942 186.606 101.682C189.909 99.4219 204.601 106.174 207.267 107.68C209.933 109.216 208.745 112.201 206.803 116.432C204.862 120.662 198.139 138.223 175.913 153.958C153.658 169.692 134.823 170.098 134.823 170.098C134.823 170.098 132.765 168.243 136.677 166.418Z" fill="url(#paint3_linear_877_859)"/>
    <path d="M203.151 119.561C205.093 115.331 206.31 112.317 203.615 110.81C201.355 109.506 190.401 104.464 185.127 104.348C185.475 103.044 185.852 102.175 186.576 101.682C189.88 99.4219 204.571 106.174 207.237 107.68C209.903 109.216 208.715 112.201 206.774 116.432C205.006 120.286 199.297 135.18 181.534 149.669C196.458 136.223 201.5 123.125 203.151 119.561Z" fill="#F0F0F0"/>
    <path d="M103.644 176.444C101.702 173.546 52.3824 153.465 52.3824 153.465C47.0505 150.567 49.4846 157.087 52.3824 166.997C55.2801 176.908 56.4972 181.515 60.3512 182.964C64.2342 184.413 94.9503 191.657 100.253 192.15C105.585 192.643 105.585 179.342 103.644 176.444Z" fill="url(#paint4_linear_877_859)"/>
    <path d="M105.555 176.444C107.497 173.546 156.817 153.465 156.817 153.465C162.149 150.567 159.714 157.087 156.817 166.997C153.919 176.908 152.702 181.515 148.848 182.964C144.965 184.413 114.278 191.657 108.946 192.15C103.614 192.643 103.614 179.342 105.555 176.444Z" fill="url(#paint5_linear_877_859)"/>
    <path d="M106.019 179.69C107.961 176.792 157.28 156.71 157.28 156.71C158.497 156.044 159.309 155.87 159.801 156.131C160.323 153.117 159.714 151.9 156.817 153.465C156.817 153.465 107.468 173.546 105.556 176.444C104.396 178.183 103.933 183.631 104.889 187.629C104.686 184.355 105.15 180.994 106.019 179.69Z" fill="#F0F0F0"/>
    <path d="M55.5985 171.663C52.7008 161.753 50.2667 155.204 55.5985 158.13C55.5985 158.13 94.5153 173.952 104.571 179.545C104.368 178.212 104.049 177.111 103.614 176.473C101.673 173.575 52.3531 153.494 52.3531 153.494C47.0212 150.596 49.4553 157.116 52.3531 167.026C54.9031 175.691 56.1491 180.298 58.9889 182.298C57.9457 179.748 56.9605 176.27 55.5985 171.663Z" fill="#F0F0F0"/>
    <path d="M103.875 189.455C102.397 187.253 64.7843 171.953 64.7843 171.953C60.7275 169.75 62.582 174.705 64.7843 182.269C66.9866 189.832 67.9139 193.338 70.8696 194.439C73.8253 195.54 97.2391 201.075 101.296 201.452C105.353 201.799 105.353 191.657 103.875 189.455Z" fill="url(#paint6_linear_877_859)"/>
    <path d="M105.324 189.455C106.801 187.253 144.385 171.953 144.385 171.953C148.442 169.75 146.588 174.705 144.385 182.269C142.183 189.832 141.256 193.338 138.3 194.439C135.344 195.54 111.93 201.075 107.874 201.452C103.846 201.799 103.846 191.657 105.324 189.455Z" fill="url(#paint7_linear_877_859)"/>
    <path d="M105.671 191.947C107.149 189.745 144.762 174.445 144.762 174.445C145.689 173.952 146.298 173.807 146.675 174.01C147.08 171.692 146.617 170.765 144.414 171.982C144.414 171.982 106.801 187.282 105.353 189.484C104.483 190.817 104.107 194.961 104.831 198.032C104.657 195.482 105.034 192.932 105.671 191.947Z" fill="#F0F0F0"/>
    <path d="M67.2764 185.804C65.0741 178.241 63.2195 173.257 67.2764 175.488C67.2764 175.488 96.9204 187.543 104.599 191.802C104.455 190.788 104.194 189.948 103.875 189.455C102.397 187.253 64.7843 171.953 64.7843 171.953C60.7275 169.75 62.582 174.705 64.7843 182.269C66.7258 188.875 67.6531 192.382 69.8554 193.889C69.044 191.976 68.2906 189.339 67.2764 185.804Z" fill="#F0F0F0"/>
    <g clip-path="url(#clip0_877_859)">
        <circle cx="104.396" cy="174" r="21" fill="url(#paint8_linear_877_859)" stroke="#F0F0F0" stroke-width="2"/>
        <path d="M99.5664 180.105L105.414 172.418C105.68 172.074 105.883 171.723 106.023 171.363C106.172 170.996 106.246 170.656 106.246 170.344V170.32C106.246 169.859 106.098 169.504 105.801 169.254C105.504 169.004 105.082 168.879 104.535 168.879C104.004 168.879 103.574 169.055 103.246 169.406C102.918 169.75 102.719 170.242 102.648 170.883V170.895H99.3555V170.883C99.4258 169.82 99.6797 168.906 100.117 168.141C100.562 167.375 101.16 166.793 101.91 166.395C102.66 165.988 103.527 165.785 104.512 165.785C105.574 165.785 106.48 165.961 107.23 166.312C107.988 166.656 108.562 167.16 108.953 167.824C109.352 168.488 109.551 169.289 109.551 170.227V170.238C109.551 171.012 109.414 171.781 109.141 172.547C108.875 173.305 108.5 173.992 108.016 174.609L103.82 179.906H109.645V183H99.5664V180.105Z" fill="#8A8A8A"/>
        <path d="M99.5664 180.105L97.9746 178.895L97.5664 179.431V180.105H99.5664ZM105.414 172.418L103.831 171.195L103.827 171.201L103.822 171.207L105.414 172.418ZM106.023 171.363L104.169 170.614L104.165 170.624L104.161 170.634L106.023 171.363ZM103.246 169.406L104.693 170.787L104.701 170.779L104.708 170.771L103.246 169.406ZM102.648 170.883L100.66 170.665L100.648 170.773V170.883H102.648ZM102.648 170.895V172.895H104.648V170.895H102.648ZM99.3555 170.895H97.3555V172.895H99.3555V170.895ZM99.3555 170.883L97.3598 170.751L97.3555 170.817V170.883H99.3555ZM100.117 168.141L98.3884 167.135L98.3845 167.142L98.3807 167.148L100.117 168.141ZM101.91 166.395L102.848 168.161L102.856 168.157L102.863 168.153L101.91 166.395ZM107.23 166.312L106.382 168.123L106.393 168.129L106.404 168.134L107.23 166.312ZM108.953 167.824L107.229 168.838L107.234 168.846L107.238 168.853L108.953 167.824ZM109.141 172.547L107.257 171.874L107.253 171.885L109.141 172.547ZM108.016 174.609L109.583 175.851L109.589 175.844L108.016 174.609ZM103.82 179.906L102.253 178.664L99.6849 181.906H103.82V179.906ZM109.645 179.906H111.645V177.906H109.645V179.906ZM109.645 183V185H111.645V183H109.645ZM99.5664 183H97.5664V185H99.5664V183ZM101.158 181.316L107.006 173.629L103.822 171.207L97.9746 178.895L101.158 181.316ZM106.997 173.641C107.364 173.165 107.668 172.649 107.886 172.092L104.161 170.634C104.098 170.796 103.995 170.983 103.831 171.195L106.997 173.641ZM107.878 172.113C108.098 171.569 108.246 170.972 108.246 170.344H104.246C104.246 170.341 104.246 170.424 104.169 170.614L107.878 172.113ZM108.246 170.344V170.32H104.246V170.344H108.246ZM108.246 170.32C108.246 169.392 107.923 168.426 107.089 167.724L104.513 170.784C104.419 170.705 104.339 170.597 104.289 170.479C104.244 170.369 104.246 170.303 104.246 170.32H108.246ZM107.089 167.724C106.309 167.067 105.363 166.879 104.535 166.879V170.879C104.596 170.879 104.639 170.882 104.666 170.886C104.693 170.889 104.701 170.892 104.694 170.89C104.686 170.888 104.663 170.88 104.63 170.863C104.596 170.845 104.555 170.819 104.513 170.784L107.089 167.724ZM104.535 166.879C103.514 166.879 102.532 167.24 101.784 168.042L104.708 170.771C104.698 170.782 104.68 170.799 104.654 170.817C104.627 170.835 104.599 170.851 104.572 170.862C104.514 170.885 104.492 170.879 104.535 170.879V166.879ZM101.799 168.025C101.076 168.783 100.762 169.741 100.66 170.665L104.636 171.101C104.676 170.743 104.76 170.717 104.693 170.787L101.799 168.025ZM100.648 170.883V170.895H104.648V170.883H100.648ZM102.648 168.895H99.3555V172.895H102.648V168.895ZM101.355 170.895V170.883H97.3555V170.895H101.355ZM101.351 171.015C101.405 170.193 101.595 169.586 101.854 169.133L98.3807 167.148C97.7647 168.226 97.4461 169.448 97.3598 170.751L101.351 171.015ZM101.846 169.146C102.112 168.688 102.442 168.377 102.848 168.161L100.972 164.628C99.8781 165.209 99.0127 166.062 98.3884 167.135L101.846 169.146ZM102.863 168.153C103.278 167.928 103.808 167.785 104.512 167.785V163.785C103.246 163.785 102.042 164.048 100.958 164.636L102.863 168.153ZM104.512 167.785C105.361 167.785 105.961 167.926 106.382 168.123L108.079 164.502C107 163.995 105.788 163.785 104.512 163.785V167.785ZM106.404 168.134C106.818 168.322 107.065 168.558 107.229 168.838L110.677 166.81C110.06 165.762 109.158 164.991 108.057 164.491L106.404 168.134ZM107.238 168.853C107.414 169.147 107.551 169.575 107.551 170.227H111.551C111.551 169.003 111.289 167.83 110.668 166.795L107.238 168.853ZM107.551 170.227V170.238H111.551V170.227H107.551ZM107.551 170.238C107.551 170.771 107.457 171.313 107.257 171.874L111.024 173.22C111.371 172.249 111.551 171.253 111.551 170.238H107.551ZM107.253 171.885C107.058 172.441 106.788 172.934 106.442 173.375L109.589 175.844C110.212 175.05 110.692 174.168 111.028 173.208L107.253 171.885ZM106.448 173.368L102.253 178.664L105.388 181.148L109.583 175.851L106.448 173.368ZM103.82 181.906H109.645V177.906H103.82V181.906ZM107.645 179.906V183H111.645V179.906H107.645ZM109.645 181H99.5664V185H109.645V181ZM101.566 183V180.105H97.5664V183H101.566Z" fill="#F0F0F0"/>
    </g>
    <defs>
        <linearGradient id="paint0_linear_877_859" x1="52.5944" y1="170.049" x2="17.1087" y2="55.3869" gradientUnits="userSpaceOnUse">
            <stop stop-color="#9A9A9A"/>
            <stop offset="1" stop-color="#E0E0E0"/>
        </linearGradient>
        <linearGradient id="paint1_linear_877_859" x1="202.722" y1="170.049" x2="167.237" y2="55.3869" gradientUnits="userSpaceOnUse">
            <stop stop-color="#9A9A9A"/>
            <stop offset="1" stop-color="#E0E0E0"/>
        </linearGradient>
        <linearGradient id="paint2_linear_877_859" x1="81.4965" y1="178.408" x2="72.0682" y2="93.6317" gradientUnits="userSpaceOnUse">
            <stop stop-color="#9A9A9A"/>
            <stop offset="1" stop-color="#E0E0E0"/>
        </linearGradient>
        <linearGradient id="paint3_linear_877_859" x1="215.398" y1="178.441" x2="205.966" y2="93.6286" gradientUnits="userSpaceOnUse">
            <stop stop-color="#9A9A9A"/>
            <stop offset="1" stop-color="#E0E0E0"/>
        </linearGradient>
        <linearGradient id="paint4_linear_877_859" x1="109.74" y1="196.935" x2="105.583" y2="148.183" gradientUnits="userSpaceOnUse">
            <stop stop-color="#9A9A9A"/>
            <stop offset="1" stop-color="#E0E0E0"/>
        </linearGradient>
        <linearGradient id="paint5_linear_877_859" x1="164.877" y1="196.935" x2="160.72" y2="148.183" gradientUnits="userSpaceOnUse">
            <stop stop-color="#9A9A9A"/>
            <stop offset="1" stop-color="#E0E0E0"/>
        </linearGradient>
        <linearGradient id="paint6_linear_877_859" x1="108.522" y1="205.099" x2="105.352" y2="167.927" gradientUnits="userSpaceOnUse">
            <stop stop-color="#9A9A9A"/>
            <stop offset="1" stop-color="#E0E0E0"/>
        </linearGradient>
        <linearGradient id="paint7_linear_877_859" x1="150.523" y1="205.099" x2="147.351" y2="167.928" gradientUnits="userSpaceOnUse">
            <stop stop-color="#9A9A9A"/>
            <stop offset="1" stop-color="#E0E0E0"/>
        </linearGradient>
        <linearGradient id="paint8_linear_877_859" x1="130.282" y1="201.33" x2="123.775" y2="147.261" gradientUnits="userSpaceOnUse">
            <stop stop-color="#9A9A9A"/>
            <stop offset="1" stop-color="#E0E0E0"/>
        </linearGradient>
        <clipPath id="clip0_877_859">
            <rect width="44" height="44" fill="white" transform="translate(82.3965 152)"/>
        </clipPath>
    </defs>
</svg>