<svg width="209" height="205" viewBox="0 0 209 205" fill="none" xmlns="http://www.w3.org/2000/svg">
    <path d="M48.0642 153.32C48.0642 153.32 34.4737 135.789 32.851 105.217C31.2282 74.6461 40.4141 67.4017 38.6175 63.3738C36.8209 59.346 19.0577 57.1726 15.6673 57.0567C12.2769 56.9408 11.6394 60.4761 11.0309 65.5761C10.4224 70.7052 6.53938 91.1343 18.3622 118.837C30.185 146.539 47.6875 157.841 47.6875 157.841C47.6875 157.841 50.6721 157.29 48.0642 153.32Z" fill="url(#paint0_linear_877_1819)"/>
    <path d="M21.4635 121.937C9.64063 94.2349 13.5236 73.8057 14.1321 68.6767C14.7407 63.5477 15.3782 60.0414 18.7686 60.1573C21.4635 60.2443 33.1994 61.6352 38.821 64.2142C38.792 63.8954 38.7341 63.6346 38.5892 63.3449C36.7926 59.317 19.0293 57.1437 15.639 57.0278C12.2486 56.9119 11.6111 60.4471 11.0026 65.5472C10.394 70.6762 6.51106 91.1053 18.3339 118.808C25.5783 135.76 34.909 146.568 41.1102 152.393C35.1698 146.163 27.5487 136.252 21.4635 121.937Z" fill="#D6945C"/>
    <path d="M161.134 153.32C161.134 153.32 174.725 135.789 176.348 105.217C177.97 74.6461 168.784 67.4017 170.581 63.3738C172.378 59.346 190.141 57.1726 193.531 57.0567C196.922 56.9408 197.559 60.4761 198.168 65.5761C198.776 70.7052 202.659 91.1343 190.836 118.837C179.013 146.539 161.511 157.841 161.511 157.841C161.511 157.841 158.526 157.29 161.134 153.32Z" fill="url(#paint1_linear_877_1819)"/>
    <path d="M187.736 121.937C199.558 94.2349 195.675 73.7768 195.067 68.6767C194.458 63.5477 193.85 60.0414 190.431 60.1573C187.736 60.2443 176 61.6352 170.378 64.2142C170.407 63.8954 170.465 63.6346 170.61 63.3449C172.407 59.317 190.17 57.1437 193.56 57.0278C196.95 56.9119 197.588 60.4471 198.196 65.5472C198.805 70.6762 202.688 91.1053 190.865 118.808C183.621 135.76 174.29 146.568 168.089 152.393C174.029 146.163 181.65 136.252 187.736 121.937Z" fill="#D6945C"/>
    <path d="M72.5218 166.418C72.5218 166.418 53.7444 159.376 38.0096 136.629C22.2748 113.882 25.897 103.942 22.6225 101.682C19.3191 99.4219 4.62747 106.174 1.96153 107.68C-0.704398 109.216 0.483681 112.201 2.42517 116.432C4.36667 120.662 11.0895 138.223 33.3152 153.958C55.541 169.692 74.3764 170.069 74.3764 170.069C74.3764 170.069 76.4337 168.243 72.5218 166.418Z" fill="url(#paint2_linear_877_1819)"/>
    <path d="M6.07568 119.561C4.13419 115.331 2.91714 112.317 5.61204 110.81C7.87229 109.506 18.8258 104.464 24.0997 104.348C23.752 103.044 23.3753 102.175 22.6508 101.682C19.3474 99.4219 4.65579 106.174 1.98985 107.68C-0.676077 109.216 0.512001 112.201 2.45349 116.432C4.22112 120.286 9.9297 135.18 27.6929 149.669C12.7405 136.223 7.69843 123.125 6.07568 119.561Z" fill="#D6945C"/>
    <path d="M136.677 166.418C136.677 166.418 155.455 159.376 171.19 136.629C186.924 113.882 183.302 103.942 186.606 101.682C189.909 99.4219 204.601 106.174 207.267 107.68C209.933 109.216 208.745 112.201 206.803 116.432C204.862 120.662 198.139 138.223 175.913 153.958C153.658 169.692 134.823 170.098 134.823 170.098C134.823 170.098 132.765 168.243 136.677 166.418Z" fill="url(#paint3_linear_877_1819)"/>
    <path d="M203.151 119.561C205.093 115.331 206.31 112.317 203.615 110.81C201.355 109.506 190.401 104.464 185.127 104.348C185.475 103.044 185.852 102.175 186.576 101.682C189.88 99.4219 204.571 106.174 207.237 107.68C209.903 109.216 208.715 112.201 206.774 116.432C205.006 120.286 199.297 135.18 181.534 149.669C196.458 136.223 201.5 123.125 203.151 119.561Z" fill="#D6945C"/>
    <path d="M103.644 176.444C101.702 173.546 52.3824 153.465 52.3824 153.465C47.0505 150.567 49.4846 157.087 52.3824 166.997C55.2801 176.908 56.4972 181.515 60.3512 182.964C64.2342 184.413 94.9503 191.657 100.253 192.15C105.585 192.643 105.585 179.342 103.644 176.444Z" fill="url(#paint4_linear_877_1819)"/>
    <path d="M105.555 176.444C107.497 173.546 156.817 153.465 156.817 153.465C162.149 150.567 159.714 157.087 156.817 166.997C153.919 176.908 152.702 181.515 148.848 182.964C144.965 184.413 114.278 191.657 108.946 192.15C103.614 192.643 103.614 179.342 105.555 176.444Z" fill="url(#paint5_linear_877_1819)"/>
    <path d="M106.019 179.69C107.961 176.792 157.28 156.71 157.28 156.71C158.497 156.044 159.309 155.87 159.801 156.131C160.323 153.117 159.714 151.9 156.817 153.465C156.817 153.465 107.468 173.546 105.556 176.444C104.396 178.183 103.933 183.631 104.889 187.629C104.686 184.355 105.15 180.994 106.019 179.69Z" fill="#D6945C"/>
    <path d="M55.5985 171.663C52.7008 161.753 50.2667 155.204 55.5985 158.13C55.5985 158.13 94.5153 173.952 104.571 179.545C104.368 178.212 104.049 177.111 103.614 176.473C101.673 173.575 52.3531 153.494 52.3531 153.494C47.0212 150.596 49.4553 157.116 52.3531 167.026C54.9031 175.691 56.1491 180.298 58.9889 182.298C57.9457 179.748 56.9605 176.27 55.5985 171.663Z" fill="#D6945C"/>
    <path d="M103.875 189.455C102.397 187.253 64.7843 171.953 64.7843 171.953C60.7275 169.75 62.582 174.705 64.7843 182.269C66.9866 189.832 67.9139 193.338 70.8696 194.439C73.8253 195.54 97.2392 201.075 101.296 201.452C105.353 201.799 105.353 191.657 103.875 189.455Z" fill="url(#paint6_linear_877_1819)"/>
    <path d="M105.324 189.455C106.801 187.253 144.385 171.953 144.385 171.953C148.442 169.75 146.588 174.705 144.385 182.269C142.183 189.832 141.256 193.338 138.3 194.439C135.344 195.54 111.93 201.075 107.874 201.452C103.846 201.799 103.846 191.657 105.324 189.455Z" fill="url(#paint7_linear_877_1819)"/>
    <path d="M105.671 191.947C107.149 189.745 144.762 174.445 144.762 174.445C145.689 173.952 146.298 173.807 146.675 174.01C147.08 171.692 146.617 170.765 144.414 171.982C144.414 171.982 106.801 187.282 105.353 189.484C104.483 190.817 104.107 194.961 104.831 198.032C104.657 195.482 105.034 192.932 105.671 191.947Z" fill="#D6945C"/>
    <path d="M67.2764 185.804C65.0741 178.241 63.2195 173.257 67.2764 175.488C67.2764 175.488 96.9204 187.543 104.599 191.802C104.455 190.788 104.194 189.948 103.875 189.455C102.397 187.253 64.7843 171.953 64.7843 171.953C60.7275 169.75 62.582 174.705 64.7843 182.269C66.7258 188.875 67.6531 192.382 69.8554 193.889C69.044 191.976 68.2906 189.339 67.2764 185.804Z" fill="#D6945C"/>
    <g clipPath="url(#clip0_877_1819)">
        <circle cx="104.396" cy="174" r="21" fill="url(#paint8_linear_877_1819)" stroke="#D6945C" stroke-width="2"/>
        <path d="M104.43 183.176C103.398 183.176 102.48 182.988 101.676 182.613C100.871 182.238 100.23 181.691 99.7539 180.973C99.2773 180.254 99.0156 179.398 98.9688 178.406H102.285C102.332 178.758 102.434 179.059 102.59 179.309C102.754 179.551 102.961 179.738 103.211 179.871C103.461 179.996 103.75 180.059 104.078 180.059C104.688 180.059 105.156 179.891 105.484 179.555C105.82 179.211 105.988 178.73 105.988 178.113V177.715C105.988 177.066 105.852 176.566 105.578 176.215C105.312 175.863 104.93 175.688 104.43 175.688H102.988V172.594H104.43C104.836 172.594 105.148 172.441 105.367 172.137C105.594 171.824 105.707 171.391 105.707 170.836V170.543C105.707 170.02 105.582 169.617 105.332 169.336C105.09 169.047 104.746 168.902 104.301 168.902C104.012 168.902 103.746 168.977 103.504 169.125C103.27 169.273 103.07 169.488 102.906 169.77C102.742 170.051 102.625 170.391 102.555 170.789H99.25C99.3438 169.75 99.6211 168.855 100.082 168.105C100.551 167.348 101.16 166.773 101.91 166.383C102.66 165.984 103.496 165.785 104.418 165.785C105.926 165.785 107.09 166.172 107.91 166.945C108.738 167.711 109.152 168.801 109.152 170.215V170.73C109.152 171.52 108.953 172.207 108.555 172.793C108.156 173.379 107.59 173.816 106.855 174.105C107.676 174.293 108.309 174.723 108.754 175.395C109.207 176.066 109.434 176.922 109.434 177.961V178.477C109.434 179.469 109.238 180.316 108.848 181.02C108.457 181.723 107.887 182.258 107.137 182.625C106.387 182.992 105.484 183.176 104.43 183.176Z" fill="#814629"/>
        <path d="M98.9688 178.406V176.406H96.872L96.971 178.501L98.9688 178.406ZM102.285 178.406L104.268 178.142L104.036 176.406H102.285V178.406ZM102.59 179.309L100.894 180.369L100.913 180.4L100.934 180.43L102.59 179.309ZM103.211 179.871L102.273 181.637L102.294 181.649L102.317 181.66L103.211 179.871ZM105.484 179.555L104.054 178.157L104.054 178.157L105.484 179.555ZM105.578 176.215L103.982 177.421L103.991 177.432L103.999 177.443L105.578 176.215ZM102.988 175.688H100.988V177.688H102.988V175.688ZM102.988 172.594V170.594H100.988V172.594H102.988ZM105.367 172.137L103.748 170.963L103.743 170.97L105.367 172.137ZM105.332 169.336L103.799 170.62L103.818 170.643L103.837 170.665L105.332 169.336ZM103.504 169.125L102.459 167.42L102.446 167.427L102.434 167.435L103.504 169.125ZM102.555 170.789V172.789H104.233L104.524 171.137L102.555 170.789ZM99.25 170.789L97.2581 170.609L97.0614 172.789H99.25V170.789ZM100.082 168.105L98.3811 167.053L98.3781 167.058L100.082 168.105ZM101.91 166.383L102.834 168.157L102.841 168.153L102.848 168.149L101.91 166.383ZM107.91 166.945L106.538 168.4L106.545 168.407L106.552 168.414L107.91 166.945ZM106.855 174.105L106.123 172.244L100.104 174.614L106.41 176.055L106.855 174.105ZM108.754 175.395L107.087 176.499L107.091 176.506L107.096 176.513L108.754 175.395ZM104.43 181.176C103.643 181.176 103.021 181.034 102.521 180.8L100.831 184.426C101.94 184.943 103.153 185.176 104.43 185.176V181.176ZM102.521 180.8C102.04 180.576 101.688 180.27 101.421 179.867L98.087 182.078C98.7734 183.113 99.7026 183.9 100.831 184.426L102.521 180.8ZM101.421 179.867C101.172 179.493 100.999 178.999 100.967 178.312L96.971 178.501C97.0323 179.798 97.3823 181.015 98.087 182.078L101.421 179.867ZM98.9688 180.406H102.285V176.406H98.9688V180.406ZM100.303 178.671C100.38 179.248 100.559 179.833 100.894 180.369L104.286 178.249C104.308 178.284 104.284 178.267 104.268 178.142L100.303 178.671ZM100.934 180.43C101.275 180.933 101.725 181.346 102.273 181.637L104.149 178.105C104.168 178.115 104.19 178.13 104.211 178.148C104.231 178.167 104.242 178.182 104.246 178.187L100.934 180.43ZM102.317 181.66C102.889 181.946 103.493 182.059 104.078 182.059V178.059C104.041 178.059 104.029 178.055 104.038 178.057C104.042 178.058 104.051 178.06 104.063 178.064C104.075 178.068 104.089 178.074 104.105 178.082L102.317 181.66ZM104.078 182.059C105.058 182.059 106.108 181.779 106.915 180.952L104.054 178.157C104.081 178.129 104.112 178.105 104.143 178.085C104.174 178.065 104.199 178.055 104.212 178.05C104.236 178.041 104.203 178.059 104.078 178.059V182.059ZM106.915 180.953C107.711 180.137 107.988 179.098 107.988 178.113H103.988C103.988 178.243 103.97 178.288 103.974 178.277C103.977 178.27 103.984 178.252 103.998 178.228C104.013 178.203 104.032 178.179 104.054 178.157L106.915 180.953ZM107.988 178.113V177.715H103.988V178.113H107.988ZM107.988 177.715C107.988 176.817 107.803 175.818 107.157 174.987L103.999 177.443C103.95 177.379 103.946 177.344 103.957 177.381C103.968 177.422 103.988 177.526 103.988 177.715H107.988ZM107.174 175.009C106.476 174.085 105.46 173.688 104.43 173.688V177.688C104.445 177.688 104.372 177.69 104.257 177.637C104.134 177.58 104.039 177.496 103.982 177.421L107.174 175.009ZM104.43 173.688H102.988V177.688H104.43V173.688ZM104.988 175.688V172.594H100.988V175.688H104.988ZM102.988 174.594H104.43V170.594H102.988V174.594ZM104.43 174.594C105.418 174.594 106.362 174.18 106.992 173.303L103.743 170.97C103.811 170.875 103.927 170.762 104.092 170.682C104.251 170.604 104.38 170.594 104.43 170.594V174.594ZM106.986 173.311C107.547 172.537 107.707 171.635 107.707 170.836H103.707C103.707 170.981 103.692 171.053 103.687 171.072C103.683 171.086 103.694 171.037 103.748 170.963L106.986 173.311ZM107.707 170.836V170.543H103.707V170.836H107.707ZM107.707 170.543C107.707 169.721 107.51 168.776 106.827 168.007L103.837 170.665C103.752 170.568 103.715 170.48 103.703 170.442C103.694 170.411 103.707 170.436 103.707 170.543H107.707ZM106.865 168.051C106.173 167.225 105.219 166.902 104.301 166.902V170.902C104.308 170.902 104.234 170.903 104.117 170.854C103.992 170.802 103.88 170.717 103.799 170.62L106.865 168.051ZM104.301 166.902C103.65 166.902 103.021 167.075 102.459 167.42L104.549 170.83C104.517 170.85 104.474 170.87 104.423 170.884C104.372 170.898 104.329 170.902 104.301 170.902V166.902ZM102.434 167.435C101.885 167.783 101.476 168.252 101.179 168.762L104.634 170.777C104.65 170.749 104.656 170.746 104.645 170.757C104.634 170.769 104.611 170.791 104.574 170.815L102.434 167.435ZM101.179 168.762C100.871 169.29 100.687 169.865 100.585 170.441L104.524 171.137C104.563 170.917 104.614 170.812 104.634 170.777L101.179 168.762ZM102.555 168.789H99.25V172.789H102.555V168.789ZM101.242 170.969C101.313 170.181 101.514 169.595 101.786 169.153L98.3781 167.058C97.7282 168.116 97.3745 169.319 97.2581 170.609L101.242 170.969ZM101.783 169.158C102.073 168.689 102.421 168.372 102.834 168.157L100.986 164.609C99.8996 165.175 99.0286 166.007 98.3811 167.053L101.783 169.158ZM102.848 168.149C103.285 167.917 103.795 167.785 104.418 167.785V163.785C103.198 163.785 102.035 164.052 100.972 164.617L102.848 168.149ZM104.418 167.785C105.592 167.785 106.2 168.081 106.538 168.4L109.282 165.49C107.98 164.262 106.26 163.785 104.418 163.785V167.785ZM106.552 168.414C106.872 168.709 107.152 169.207 107.152 170.215H111.152C111.152 168.394 110.605 166.713 109.268 165.477L106.552 168.414ZM107.152 170.215V170.73H111.152V170.215H107.152ZM107.152 170.73C107.152 171.166 107.048 171.451 106.901 171.668L110.209 173.918C110.858 172.963 111.152 171.873 111.152 170.73H107.152ZM106.901 171.668C106.754 171.884 106.527 172.085 106.123 172.244L107.588 175.966C108.652 175.548 109.559 174.873 110.209 173.918L106.901 171.668ZM106.41 176.055C106.754 176.134 106.939 176.276 107.087 176.499L110.421 174.29C109.679 173.169 108.598 172.452 107.301 172.156L106.41 176.055ZM107.096 176.513C107.271 176.772 107.434 177.209 107.434 177.961H111.434C111.434 176.635 111.143 175.36 110.412 174.276L107.096 176.513ZM107.434 177.961V178.477H111.434V177.961H107.434ZM107.434 178.477C107.434 179.207 107.291 179.704 107.099 180.048L110.596 181.991C111.186 180.929 111.434 179.73 111.434 178.477H107.434ZM107.099 180.048C106.915 180.38 106.655 180.634 106.257 180.829L108.016 184.421C109.118 183.882 109.999 183.066 110.596 181.991L107.099 180.048ZM106.257 180.829C105.843 181.031 105.257 181.176 104.43 181.176V185.176C105.711 185.176 106.93 184.953 108.016 184.421L106.257 180.829Z" fill="#D6945C"/>
    </g>
    <defs>
        <linearGradient id="paint0_linear_877_1819" x1="52.5944" y1="170.049" x2="17.1087" y2="55.3869" gradientUnits="userSpaceOnUse">
            <stop stop-color="#D99A80"/>
            <stop offset="1" stop-color="#8B4B29"/>
        </linearGradient>
        <linearGradient id="paint1_linear_877_1819" x1="202.722" y1="170.049" x2="167.237" y2="55.3869" gradientUnits="userSpaceOnUse">
            <stop stop-color="#D99A80"/>
            <stop offset="1" stop-color="#8B4B29"/>
        </linearGradient>
        <linearGradient id="paint2_linear_877_1819" x1="81.4965" y1="178.408" x2="72.0682" y2="93.6317" gradientUnits="userSpaceOnUse">
            <stop stop-color="#D99A80"/>
            <stop offset="1" stop-color="#8B4B29"/>
        </linearGradient>
        <linearGradient id="paint3_linear_877_1819" x1="215.398" y1="178.441" x2="205.966" y2="93.6286" gradientUnits="userSpaceOnUse">
            <stop stop-color="#D99A80"/>
            <stop offset="1" stop-color="#8B4B29"/>
        </linearGradient>
        <linearGradient id="paint4_linear_877_1819" x1="109.74" y1="196.935" x2="105.583" y2="148.183" gradientUnits="userSpaceOnUse">
            <stop stop-color="#D99A80"/>
            <stop offset="1" stop-color="#8B4B29"/>
        </linearGradient>
        <linearGradient id="paint5_linear_877_1819" x1="164.877" y1="196.935" x2="160.72" y2="148.183" gradientUnits="userSpaceOnUse">
            <stop stop-color="#D99A80"/>
            <stop offset="1" stop-color="#8B4B29"/>
        </linearGradient>
        <linearGradient id="paint6_linear_877_1819" x1="108.522" y1="205.099" x2="105.352" y2="167.927" gradientUnits="userSpaceOnUse">
            <stop stop-color="#D99A80"/>
            <stop offset="1" stop-color="#8B4B29"/>
        </linearGradient>
        <linearGradient id="paint7_linear_877_1819" x1="150.523" y1="205.099" x2="147.351" y2="167.928" gradientUnits="userSpaceOnUse">
            <stop stop-color="#D99A80"/>
            <stop offset="1" stop-color="#8B4B29"/>
        </linearGradient>
        <linearGradient id="paint8_linear_877_1819" x1="130.282" y1="201.33" x2="123.775" y2="147.261" gradientUnits="userSpaceOnUse">
            <stop stop-color="#D99A80"/>
            <stop offset="1" stop-color="#8B4B29"/>
        </linearGradient>
        <clipPath id="clip0_877_1819">
            <rect width="44" height="44" fill="white" transform="translate(82.3965 152)"/>
        </clipPath>
    </defs>
</svg>
