<svg width="40" height="40" viewBox="0 0 40 40" fill="none" xmlns="http://www.w3.org/2000/svg">
<path d="M20.0002 3.33301C10.7954 3.33301 3.3335 10.7949 3.3335 19.9997C3.3335 29.2044 10.7954 36.6663 20.0002 36.6663C29.2049 36.6663 36.6668 29.2044 36.6668 19.9997C36.6668 10.7949 29.2049 3.33301 20.0002 3.33301Z" fill="#8774B8" fill-opacity="0.2"/>
<g clip-path="url(#clip0_119_4495)">
<path fill-rule="evenodd" clip-rule="evenodd" d="M22.3101 18.712H17.1962V16.1551C17.1962 14.7455 18.3436 13.5981 19.7532 13.5981C21.1627 13.5981 22.3101 14.7455 22.3101 16.1551V18.712ZM19.7532 24.3054C19.0468 24.3054 18.4747 23.7333 18.4747 23.0269C18.4747 22.3206 19.0468 21.7484 19.7532 21.7484C20.4595 21.7484 21.0317 22.3206 21.0317 23.0269C21.0317 23.7333 20.4595 24.3054 19.7532 24.3054ZM23.9082 18.712V16.1551C23.9082 13.8602 22.0481 12 19.7532 12C17.4583 12 15.5981 13.8602 15.5981 16.1551V18.712C14.716 18.712 14 19.428 14 20.3101V25.7437C14 26.6258 14.716 27.3418 15.5981 27.3418H23.9082C24.7904 27.3418 25.5063 26.6258 25.5063 25.7437V20.3101C25.5063 19.428 24.7904 18.712 23.9082 18.712Z" fill="#8774B8"/>
</g>
<defs>
<clipPath id="clip0_119_4495">
<rect width="12" height="15" fill="white" transform="translate(14 12)"/>
</clipPath>
</defs>
</svg>
