<svg width="24" height="24" viewBox="0 0 24 24" fill="none" xmlns="http://www.w3.org/2000/svg">
<g clip-path="url(#clip0_54_1479)">
<path fill-rule="evenodd" clip-rule="evenodd" d="M16.5 13H13V16.5C13 17.05 12.55 17.5 12 17.5C11.45 17.5 11 17.05 11 16.5V13H7.49995C6.94995 13 6.49995 12.55 6.49995 12C6.49995 11.45 6.94995 11 7.49995 11H11V7.49999C11 6.94999 11.45 6.49999 12 6.49999C12.55 6.49999 13 6.94999 13 7.49999V11H16.5C17.05 11 17.5 11.45 17.5 12C17.5 12.55 17.05 13 16.5 13ZM12 0C5.375 0 0 5.375 0 12C0 18.625 5.375 24 12 24C18.625 24 24 18.625 24 12C24 5.375 18.625 0 12 0Z" fill="white"/>
</g>
<defs>
<clipPath id="clip0_54_1479">
<rect width="24" height="24" fill="white"/>
</clipPath>
</defs>
</svg>
